<?xml version="1.0" encoding="utf-8"?>
<!-- Generator: Adobe Illustrator 16.0.0, SVG Export Plug-In . SVG Version: 6.00 Build 0)  -->
<!DOCTYPE svg PUBLIC "-//W3C//DTD SVG 1.0//EN" "http://www.w3.org/TR/2001/REC-SVG-20010904/DTD/svg10.dtd">
<svg version="1.0" id="Layer_1" xmlns="http://www.w3.org/2000/svg" xmlns:xlink="http://www.w3.org/1999/xlink" x="0px" y="0px"
	 width="100px" height="100px" viewBox="0 0 100 100" enable-background="new 0 0 100 100" xml:space="preserve">
<path d="M79.029,47.669L56.63,25.286c-1.208-1.207-2.874-1.953-4.714-1.953c-2.903,0-5.25,2.344-5.25,5.248v13.395L29.963,25.286
	c-1.207-1.207-2.874-1.953-4.713-1.953c-2.904,0-5.251,2.344-5.251,5.248v42.842c0,2.896,2.351,5.244,5.251,5.244h0.042
	c1.839,0,3.506-0.742,4.714-1.953l16.66-16.647v13.356c0,2.896,2.35,5.244,5.25,5.244h0.043c1.839,0,3.506-0.742,4.713-1.953
	l22.357-22.338C80.324,51.084,80.324,48.962,79.029,47.669z"/>
</svg>
