<svg width="100" height="100" xmlns="http://www.w3.org/2000/svg" xml:space="preserve" enable-background="new 0 0 100 100" version="1.0">

 <g>
  <title>Layer 1</title>
  <path transform="rotate(180, 50, 50)" id="svg_1" d="m66.667,23.333l-6.667,0c-3.665,0 -6.667,3.002 -6.667,6.667l0,11.976l-16.702,-16.69c-1.208,-1.207 -2.874,-1.953 -4.714,-1.953c-2.903,0 -5.25,2.344 -5.25,5.248l0,42.842c0,2.896 2.35,5.244 5.25,5.244l0.043,0c1.839,0 3.506,-0.742 4.713,-1.953l16.66,-16.647l0,11.933c0,3.665 3.002,6.667 6.667,6.667l6.667,0c3.665,0 6.666,-3.002 6.666,-6.667l0,-40c0,-3.665 -3.001,-6.667 -6.666,-6.667z"/>
 </g>
</svg>