<svg width="100" height="100" xmlns="http://www.w3.org/2000/svg" xml:space="preserve" enable-background="new 0 0 100 100" version="1.0">

 <g>
  <title>Layer 1</title>
  <path transform="rotate(180, 50, 50)" id="svg_1" d="m79.029,47.669l-22.399,-22.383c-1.208,-1.207 -2.874,-1.953 -4.714,-1.953c-2.903,0 -5.25,2.344 -5.25,5.248l0,13.395l-16.703,-16.69c-1.207,-1.207 -2.874,-1.953 -4.713,-1.953c-2.904,0 -5.251,2.344 -5.251,5.248l0,42.842c0,2.896 2.351,5.244 5.251,5.244l0.042,0c1.839,0 3.506,-0.742 4.714,-1.953l16.66,-16.647l0,13.356c0,2.896 2.35,5.244 5.25,5.244l0.043,0c1.839,0 3.506,-0.742 4.713,-1.953l22.357,-22.338c1.295,-1.292 1.295,-3.414 0,-4.707z"/>
 </g>
</svg>