<?xml version="1.0" encoding="utf-8"?>
<!-- Generator: Adobe Illustrator 16.0.0, SVG Export Plug-In . SVG Version: 6.00 Build 0)  -->
<!DOCTYPE svg PUBLIC "-//W3C//DTD SVG 1.0//EN" "http://www.w3.org/TR/2001/REC-SVG-20010904/DTD/svg10.dtd">
<svg version="1.0" id="Layer_1" xmlns="http://www.w3.org/2000/svg" xmlns:xlink="http://www.w3.org/1999/xlink" x="0px" y="0px"
	 width="100px" height="100px" viewBox="0 0 100 100" enable-background="new 0 0 100 100" xml:space="preserve">
<path d="M83.333,50c0,18.411-14.922,33.333-33.333,33.333c-18.408,0-33.333-14.922-33.333-33.333
	c0-18.408,14.925-33.333,33.333-33.333c9.304,0,17.669,3.854,23.714,10l-12.047,0.007v6.66h20C83.506,33.333,85,31.842,85,30V10
	h-6.667v11.891C71.094,14.58,61.106,10,50,10c-22.09,0-40,17.91-40,40c0,22.093,17.91,40,40,40c22.093,0,40-17.907,40-40H83.333z"/>
<path d="M60.94,48.232l-15.003-15c-0.462-0.449-1.074-0.732-1.78-0.732c-1.377,0-2.49,1.123-2.49,2.5v30c0,1.377,1.113,2.5,2.49,2.5
	c0.706,0,1.318-0.283,1.78-0.732l15.003-15C61.907,50.791,61.907,49.209,60.94,48.232z"/>
</svg>
