<?xml version="1.0" encoding="UTF-8"?>
<!DOCTYPE svg PUBLIC "-//W3C//DTD SVG 1.1//EN" "http://www.w3.org/Graphics/SVG/1.1/DTD/svg11.dtd">
<!-- Creator: CorelDRAW -->
<svg xmlns="http://www.w3.org/2000/svg" xml:space="preserve" width="6.82666in" height="6.82666in" style="shape-rendering:geometricPrecision; text-rendering:geometricPrecision; image-rendering:optimizeQuality; fill-rule:evenodd; clip-rule:evenodd"
viewBox="0 0 6.82666 6.82666"
 xmlns:xlink="http://www.w3.org/1999/xlink">
 <defs>
  <style type="text/css">
   <![CDATA[
    .fil1 {fill:none}
    .fil0 {fill:#424242}
    .fil2 {fill:#FFFFFE}
   ]]>
  </style>
 </defs>
 <rect class="fil0" width="6.82666" height="6.82666"/>
 <g id="Layer_x0020_1">
  <metadata id="CorelCorpID_0Corel-Layer"/>
  <g id="_425732216">
   <rect id="_425731688" class="fil1" width="6.82666" height="6.82666"/>
   <rect id="_425732120" class="fil1" x="0.853331" y="0.853331" width="5.12" height="5.12"/>
  </g>
  <g id="_425730752">
   <polygon id="_425731496" class="fil2" points="5.47901,2.73096 3.12609,2.2687 2.603,4.9313 2.18974,4.85062 2.79411,1.77438 3.00056,1.81494 5.97333,2.39897 5.93278,2.60543 5.41087,5.26194 4.99762,5.18127 "/>
   <path id="_425731736" class="fil2" d="M2.27704 1.46934l-0.429504 2.1862 -0.271122 -0.0529291 0.511386 -2.60297 0.175539 0.130358c0.189949,0.141055 0.402669,0.236858 0.632681,0.291488 0.267791,0.0636024 0.546866,0.0691929 0.819736,0.0408661l0.0327795 -0.00340157 0.0280984 0.274472 -0.032689 0.0033937c-0.303681,0.0315197 -0.613717,0.0243583 -0.911677,-0.0464094 -0.195709,-0.0464803 -0.382031,-0.119567 -0.555228,-0.221071z"/>
   <path id="_425730800" class="fil2" d="M2.05529 4.14693c0.154055,0 0.300673,0.0607598 0.409587,0.169669 0.108909,0.108913 0.169669,0.255531 0.169669,0.409583 0,0.154055 -0.0607598,0.300673 -0.169669,0.409587 -0.108913,0.108909 -0.255531,0.169665 -0.409587,0.169665 -0.154051,0 -0.300669,-0.0607559 -0.409583,-0.169665 -0.108909,-0.108913 -0.169669,-0.255531 -0.169669,-0.409587 0,-0.154051 0.0607598,-0.300669 0.169669,-0.409583 0.108913,-0.108909 0.255531,-0.169669 0.409583,-0.169669zm0.111713 0.467543c-0.0297874,-0.0297953 -0.0695827,-0.0462638 -0.111713,-0.0462638 -0.0421339,0 -0.0819213,0.0164685 -0.111709,0.0462638 -0.0297953,0.0297874 -0.0462638,0.0695787 -0.0462638,0.111709 0,0.0421339 0.0164685,0.0819252 0.0462638,0.111713 0.0297874,0.0297913 0.0695748,0.0462638 0.111709,0.0462638 0.0421299,0 0.0819252,-0.0164724 0.111713,-0.0462638 0.0297913,-0.0297874 0.0462638,-0.0695787 0.0462638,-0.111713 0,-0.0421299 -0.0164724,-0.0819213 -0.0462638,-0.111709z"/>
   <path id="_425731328" class="fil2" d="M4.8357 4.66851c0.154055,0 0.300673,0.0607559 0.409587,0.169665 0.108909,0.108913 0.169669,0.255535 0.169669,0.409587 0,0.154051 -0.0607598,0.300673 -0.169669,0.409587 -0.108913,0.108909 -0.255531,0.169665 -0.409587,0.169665 -0.154051,0 -0.300669,-0.0607559 -0.409583,-0.169665 -0.108909,-0.108913 -0.169669,-0.255535 -0.169669,-0.409587 0,-0.154051 0.0607598,-0.300673 0.169669,-0.409587 0.108913,-0.108909 0.255531,-0.169665 0.409583,-0.169665zm0.111713 0.467539c-0.0297874,-0.0297913 -0.0695787,-0.0462638 -0.111713,-0.0462638 -0.0421339,0 -0.0819213,0.0164724 -0.111709,0.0462638 -0.0297953,0.0297874 -0.0462638,0.0695827 -0.0462638,0.111713 0,0.0421339 0.0164685,0.0819252 0.0462638,0.111713 0.0297874,0.0297913 0.0695748,0.0462598 0.111709,0.0462598 0.0421339,0 0.0819252,-0.0164685 0.111713,-0.0462598 0.0297913,-0.0297874 0.0462638,-0.0695787 0.0462638,-0.111713 0,-0.0421299 -0.0164724,-0.0819252 -0.0462638,-0.111713z"/>
   <path id="_425731064" class="fil2" d="M1.36018 3.16684c0.134846,0 0.263051,0.0531299 0.358382,0.148465 0.0953346,0.0953307 0.148461,0.223535 0.148461,0.358382 0,0.134846 -0.053122,0.263047 -0.148461,0.358382 -0.0953307,0.0953346 -0.223535,0.148461 -0.358382,0.148461 -0.13485,0 -0.263047,-0.053122 -0.358382,-0.148461 -0.0953386,-0.0953346 -0.148461,-0.223535 -0.148461,-0.358382 0,-0.134846 0.053126,-0.263051 0.148461,-0.358382 0.0953346,-0.0953386 0.223531,-0.148465 0.358382,-0.148465zm0.162913 0.343929c-0.0433661,-0.0433622 -0.101579,-0.0674646 -0.162913,-0.0674646 -0.0613386,0 -0.119543,0.0240984 -0.162913,0.0674646 -0.0433661,0.0433661 -0.0674685,0.101583 -0.0674685,0.162917 0,0.0613346 0.0240984,0.119543 0.0674685,0.162913 0.0433701,0.0433661 0.101575,0.0674685 0.162913,0.0674685 0.0613346,0 0.119547,-0.0241063 0.162913,-0.0674685 0.0433661,-0.0433701 0.0674685,-0.101579 0.0674685,-0.162913 0,-0.0613346 -0.0241063,-0.119551 -0.0674685,-0.162917z"/>
  </g>
 </g>
</svg>
