<?xml version="1.0" encoding="UTF-8" standalone="no" ?>
<!DOCTYPE svg PUBLIC "-//W3C//DTD SVG 1.1//EN" "http://www.w3.org/Graphics/SVG/1.1/DTD/svg11.dtd">
<svg xmlns="http://www.w3.org/2000/svg" xmlns:xlink="http://www.w3.org/1999/xlink" version="1.1" width="32" height="32" viewBox="0 0 32 32" xml:space="preserve">
<desc>Created with Fabric.js 4.6.0</desc>
<defs>
</defs>
<g transform="matrix(1 0 0 1 5 16)" id="_XzVbUI1xNSib6mIpraUq"  >
<path style="stroke: none; stroke-width: 1; stroke-dasharray: none; stroke-linecap: butt; stroke-dashoffset: 0; stroke-linejoin: miter; stroke-miterlimit: 4; fill: rgb(0,0,0); fill-rule: nonzero; opacity: 1;" vector-effect="non-scaling-stroke"  transform=" translate(-5, -16)" d="M 5 20 C 2.7908610006768266 20 1 18.209138999323173 1 16 C 1 13.790861000676827 2.7908610006768266 12 5 12 C 7.209138999323173 12 9 13.790861000676825 9 16 C 9 18.209138999323173 7.209138999323173 20 5 20 Z M 5 14 C 3.8954305003384135 14 3 14.895430500338414 3 16 C 3 17.104569499661586 3.8954305003384135 18 5 18 C 6.1045694996615865 18 7 17.104569499661586 7 16 C 7 14.895430500338414 6.1045694996615865 14 5 14 Z" stroke-linecap="round" />
</g>
<g transform="matrix(1 0 0 1 16 16)" id="t-0EAXVOKZEl51ykL6B0L"  >
<path style="stroke: none; stroke-width: 1; stroke-dasharray: none; stroke-linecap: butt; stroke-dashoffset: 0; stroke-linejoin: miter; stroke-miterlimit: 4; fill: rgb(0,0,0); fill-rule: nonzero; opacity: 1;" vector-effect="non-scaling-stroke"  transform=" translate(-16, -16)" d="M 16 20 C 13.790861000676827 20 12 18.209138999323173 12 16 C 12 13.790861000676827 13.790861000676827 12 16 12 C 18.209138999323173 12 20 13.790861000676825 20 16 C 20 18.209138999323173 18.209138999323173 20 16 20 Z M 16 14 C 14.895430500338414 14 14 14.895430500338414 14 16 C 14 17.104569499661586 14.895430500338414 18 16 18 C 17.104569499661586 18 18 17.104569499661586 18 16 C 18 14.895430500338414 17.104569499661586 14 16 14 Z" stroke-linecap="round" />
</g>
<g transform="matrix(1 0 0 1 27 16)" id="Jl2idf1h2swbOo7_MNNlv"  >
<path style="stroke: none; stroke-width: 1; stroke-dasharray: none; stroke-linecap: butt; stroke-dashoffset: 0; stroke-linejoin: miter; stroke-miterlimit: 4; fill: rgb(0,0,0); fill-rule: nonzero; opacity: 1;" vector-effect="non-scaling-stroke"  transform=" translate(-27, -16)" d="M 27 20 C 24.790861000676827 20 23 18.209138999323173 23 16 C 23 13.790861000676827 24.790861000676827 12 27 12 C 29.209138999323173 12 31 13.790861000676825 31 16 C 31 18.209138999323173 29.209138999323173 20 27 20 Z M 27 14 C 25.895430500338414 14 25 14.895430500338414 25 16 C 25 17.104569499661586 25.895430500338414 18 27 18 C 28.104569499661586 18 29 17.104569499661586 29 16 C 29 14.895430500338414 28.104569499661586 14 27 14 Z" stroke-linecap="round" />
</g>
<g transform="matrix(1 0 0 1 5 16)" id="_XzVbUI1xNSib6mIpraUq"  >
<path style="stroke: none; stroke-width: 1; stroke-dasharray: none; stroke-linecap: butt; stroke-dashoffset: 0; stroke-linejoin: miter; stroke-miterlimit: 4; fill: rgb(0,0,0); fill-rule: nonzero; opacity: 1;" vector-effect="non-scaling-stroke"  transform=" translate(-5, -16)" d="M 5 20 C 2.7908610006768266 20 1 18.209138999323173 1 16 C 1 13.790861000676827 2.7908610006768266 12 5 12 C 7.209138999323173 12 9 13.790861000676825 9 16 C 9 18.209138999323173 7.209138999323173 20 5 20 Z M 5 14 C 3.8954305003384135 14 3 14.895430500338414 3 16 C 3 17.104569499661586 3.8954305003384135 18 5 18 C 6.1045694996615865 18 7 17.104569499661586 7 16 C 7 14.895430500338414 6.1045694996615865 14 5 14 Z" stroke-linecap="round" />
</g>
<g transform="matrix(1 0 0 1 16 16)" id="t-0EAXVOKZEl51ykL6B0L"  >
<path style="stroke: none; stroke-width: 1; stroke-dasharray: none; stroke-linecap: butt; stroke-dashoffset: 0; stroke-linejoin: miter; stroke-miterlimit: 4; fill: rgb(0,0,0); fill-rule: nonzero; opacity: 1;" vector-effect="non-scaling-stroke"  transform=" translate(-16, -16)" d="M 16 20 C 13.790861000676827 20 12 18.209138999323173 12 16 C 12 13.790861000676827 13.790861000676827 12 16 12 C 18.209138999323173 12 20 13.790861000676825 20 16 C 20 18.209138999323173 18.209138999323173 20 16 20 Z M 16 14 C 14.895430500338414 14 14 14.895430500338414 14 16 C 14 17.104569499661586 14.895430500338414 18 16 18 C 17.104569499661586 18 18 17.104569499661586 18 16 C 18 14.895430500338414 17.104569499661586 14 16 14 Z" stroke-linecap="round" />
</g>
<g transform="matrix(1 0 0 1 27 16)" id="Jl2idf1h2swbOo7_MNNlv"  >
<path style="stroke: none; stroke-width: 1; stroke-dasharray: none; stroke-linecap: butt; stroke-dashoffset: 0; stroke-linejoin: miter; stroke-miterlimit: 4; fill: rgb(0,0,0); fill-rule: nonzero; opacity: 1;" vector-effect="non-scaling-stroke"  transform=" translate(-27, -16)" d="M 27 20 C 24.790861000676827 20 23 18.209138999323173 23 16 C 23 13.790861000676827 24.790861000676827 12 27 12 C 29.209138999323173 12 31 13.790861000676825 31 16 C 31 18.209138999323173 29.209138999323173 20 27 20 Z M 27 14 C 25.895430500338414 14 25 14.895430500338414 25 16 C 25 17.104569499661586 25.895430500338414 18 27 18 C 28.104569499661586 18 29 17.104569499661586 29 16 C 29 14.895430500338414 28.104569499661586 14 27 14 Z" stroke-linecap="round" />
</g>
<g transform="matrix(1 0 0 1 5.01 16.01)" id="hbaIyTe48S-xsYwqWOAAK"  >
<path style="stroke: rgb(0,0,0); stroke-width: 1; stroke-dasharray: none; stroke-linecap: butt; stroke-dashoffset: 0; stroke-linejoin: miter; stroke-miterlimit: 4; fill: rgb(255,255,255); fill-rule: nonzero; opacity: 1;" vector-effect="non-scaling-stroke"  transform=" translate(0, 0)" d="M -0.01377 -3.03158 L -1.56762 -2.61701 L -2.26722 -1.86559 L -2.9668200000000002 -1.16599 L -3.0963700000000003 -0.20729000000000009 L -2.73362 0.7514099999999999 L -2.26722 1.45101 L -1.56762 2.3319799999999997 L -0.66074 2.8761099999999997 L 0.5052500000000001 3.03158 L 1.7230600000000003 2.59109 L 2.57812 1.6582999999999999 L 3.09634 0.28501999999999983 L 2.9408700000000003 -1.16599" stroke-linecap="round" />
</g>
<g transform="matrix(1 0 0 1 5.01 16.01)" id="ogFc-ga_TylWG9kdRLX9m"  >
<path style="stroke: rgb(0,0,0); stroke-width: 1; stroke-dasharray: none; stroke-linecap: butt; stroke-dashoffset: 0; stroke-linejoin: miter; stroke-miterlimit: 4; fill: rgb(0,0,0); fill-rule: nonzero; opacity: 1;" vector-effect="non-scaling-stroke"  transform=" translate(0, 0)" d="M -0.01377 -3.03158 L -1.56762 -2.61701 L -2.26722 -1.86559 L -2.9668200000000002 -1.16599 L -3.0963700000000003 -0.20729000000000009 L -2.73362 0.7514099999999999 L -2.26722 1.45101 L -1.56762 2.3319799999999997 L -0.66074 2.8761099999999997 L 0.5052500000000001 3.03158 L 1.7230600000000003 2.59109 L 2.57812 1.6582999999999999 L 3.09634 0.28501999999999983 L 2.9408700000000003 -1.16599 L 1.8526100000000003 -2.617 L -0.013789999999999747 -3.03157" stroke-linecap="round" />
</g>
<g transform="matrix(1 0 0 1 16 16.22)" id="jjpPkFP11LyUDZepDmbat"  >
<path style="stroke: rgb(0,0,0); stroke-width: 1; stroke-dasharray: none; stroke-linecap: butt; stroke-dashoffset: 0; stroke-linejoin: miter; stroke-miterlimit: 4; fill: rgb(0,0,0); fill-rule: nonzero; opacity: 1;" vector-effect="non-scaling-stroke"  transform=" translate(0, 0)" d="M -0.01377 -3.03158 L -1.56762 -2.61701 L -2.26722 -1.86559 L -2.9668200000000002 -1.16599 L -3.0963700000000003 -0.20729000000000009 L -2.73362 0.7514099999999999 L -2.26722 1.45101 L -1.56762 2.3319799999999997 L -0.66074 2.8761099999999997 L 0.5052500000000001 3.03158 L 1.7230600000000003 2.59109 L 2.57812 1.6582999999999999 L 3.09634 0.28501999999999983 L 2.9408700000000003 -1.16599 L 1.8526100000000003 -2.617 L -0.013789999999999747 -3.03157" stroke-linecap="round" />
</g>
<g transform="matrix(1 0 0 1 27 16)" id="TE7QEOxRhsLkPq5kbWyBC"  >
<path style="stroke: rgb(0,0,0); stroke-width: 1; stroke-dasharray: none; stroke-linecap: butt; stroke-dashoffset: 0; stroke-linejoin: miter; stroke-miterlimit: 4; fill: rgb(0,0,0); fill-rule: nonzero; opacity: 1;" vector-effect="non-scaling-stroke"  transform=" translate(0, 0)" d="M -0.01377 -3.03158 L -1.56762 -2.61701 L -2.26722 -1.86559 L -2.9668200000000002 -1.16599 L -3.0963700000000003 -0.20729000000000009 L -2.73362 0.7514099999999999 L -2.26722 1.45101 L -1.56762 2.3319799999999997 L -0.66074 2.8761099999999997 L 0.5052500000000001 3.03158 L 1.7230600000000003 2.59109 L 2.57812 1.6582999999999999 L 3.09634 0.28501999999999983 L 2.9408700000000003 -1.16599 L 1.8526100000000003 -2.617 L -0.013789999999999747 -3.03157" stroke-linecap="round" />
</g>
</svg>