<?xml version="1.0" encoding="UTF-8" standalone="no" ?>
<!DOCTYPE svg PUBLIC "-//W3C//DTD SVG 1.1//EN" "http://www.w3.org/Graphics/SVG/1.1/DTD/svg11.dtd">
<svg xmlns="http://www.w3.org/2000/svg" xmlns:xlink="http://www.w3.org/1999/xlink" version="1.1" width="24" height="24" viewBox="0 0 24 24" xml:space="preserve">
<desc>Created with Fabric.js 4.6.0</desc>
<defs>
</defs>
<g transform="matrix(1 0 0 1 7 12)" id="5qgw6qloL1I9aM1NiW7tb"  >
<path style="stroke: none; stroke-width: 1; stroke-dasharray: none; stroke-linecap: butt; stroke-dashoffset: 0; stroke-linejoin: miter; stroke-miterlimit: 4; fill: rgb(0,0,0); fill-rule: nonzero; opacity: 1;" vector-effect="non-scaling-stroke"  transform=" translate(-7, -12)" d="M 11.46 3 C 10.46 3 10.46 3.13 4.700000000000001 7 L 1 7 C 0.44771525016920666 7 0 7.447715250169207 0 8 L 0 16 C 0 16.552284749830793 0.44771525016920666 17 1 17 L 4.7 17 L 10.06 20.57 C 10.838599847405108 21.08433898758914 11.836532109459483 21.130335727075973 12.659144091971644 20.689799868420984 C 13.481756074483805 20.249264009765994 13.996572999609597 19.393140167499933 14 18.46 L 14 5.54 C 14 4.137196735429785 12.862803264570214 3 11.46 3 Z M 2 9 L 4 9 L 4 15 L 2 15 Z M 12 18.46 C 11.991871160974227 18.653335150594767 11.88274134381412 18.82817472977599 11.712628880069207 18.920404378794316 C 11.542516416324295 19.01263402781264 11.336451901274877 19.00868294199803 11.17 18.91 L 6 15.46 L 6 8.54 L 11.17 5.089999999999999 C 11.336451901274877 4.991317058001971 11.542516416324295 4.987365972187357 11.712628880069207 5.079595621205683 C 11.88274134381412 5.171825270224009 11.991871160974227 5.346664849405234 12 5.539999999999999 Z" stroke-linecap="round" />
</g>
<g transform="matrix(1 0 0 1 16.55 12)" id="DrUiGj7fIAI3paEtUBK2U"  >
<path style="stroke: none; stroke-width: 1; stroke-dasharray: none; stroke-linecap: butt; stroke-dashoffset: 0; stroke-linejoin: miter; stroke-miterlimit: 4; fill: rgb(0,0,0); fill-rule: nonzero; opacity: 1;" vector-effect="non-scaling-stroke"  transform=" translate(-16.55, -12)" d="M 16.83 9.17 C 16.437877827620134 8.777877827620136 15.802122172379862 8.777877827620136 15.409999999999998 9.17 C 15.017877827620135 9.562122172379864 15.017877827620135 10.197877827620136 15.409999999999998 10.59 C 16.1854471894216 11.370074908621847 16.185447189421595 12.629925091378153 15.409999999999998 13.41 C 15.121540051227544 13.696090455897595 15.034838143524482 14.128266787745822 15.190629049786398 14.503481505644244 C 15.346419956048315 14.878696223542663 15.713734927647195 15.122362623049149 16.119999999999997 15.120000000000001 C 17.5 15.12 19.16 11.5 16.83 9.17 Z" stroke-linecap="round" />
</g>
<g transform="matrix(1 0 0 1 19.15 12.02)" id="d_ycJ6bmCCWDJeitDfwbs"  >
<path style="stroke: none; stroke-width: 1; stroke-dasharray: none; stroke-linecap: butt; stroke-dashoffset: 0; stroke-linejoin: miter; stroke-miterlimit: 4; fill: rgb(0,0,0); fill-rule: nonzero; opacity: 1;" vector-effect="non-scaling-stroke"  transform=" translate(-19.15, -12.02)" d="M 19 7.05 C 18.6032397225443 6.7102232040712995 18.011805828454296 6.73306773031897 17.64243677938663 7.1024367793866325 C 17.27306773031897 7.471805828454295 17.2502232040713 8.0632397225443 17.59 8.459999999999999 C 18.53041700687635 9.398042630101669 19.058937836854184 10.671727391417585 19.058937836854184 11.999999999999998 C 19.058937836854184 13.32827260858241 18.53041700687635 14.60195736989833 17.59 15.54 C 17.309880280900614 15.825700309878503 17.227024462180978 16.250871213749686 17.379368032941095 16.620848457024255 C 17.53171160370121 16.99082570029882 17.88992483332859 17.234379937203588 18.29 17.24 C 19.9 17.24 23.09 11.19 19 7.05 Z" stroke-linecap="round" />
</g>
<g transform="matrix(1 0 0 1 3.07 11.96)" id="Wkr_8C5rSGYFkp9Jh-3xW"  >
<path style="stroke: rgb(0,0,0); stroke-width: 1; stroke-dasharray: none; stroke-linecap: butt; stroke-dashoffset: 0; stroke-linejoin: miter; stroke-miterlimit: 4; fill: rgb(0,0,0); fill-rule: nonzero; opacity: 1;" vector-effect="non-scaling-stroke"  transform=" translate(0, 0)" d="M -1.64215 -3.66557 L -1.64215 3.66557 L 1.64215 3.66557 L 1.44066 -3.66557 z" stroke-linecap="round" />
</g>
<g transform="matrix(1 0 0 1 9.1 12.03)" id="-n_X6zDuqfv-pwGdyS1xQ"  >
<path style="stroke: rgb(0,0,0); stroke-width: 1; stroke-dasharray: none; stroke-linecap: butt; stroke-dashoffset: 0; stroke-linejoin: miter; stroke-miterlimit: 4; fill: rgb(0,0,0); fill-rule: nonzero; opacity: 1;" vector-effect="non-scaling-stroke"  transform=" translate(0, 0)" d="M -3.66714 -4.23766 L -3.66714 3.8787000000000003 L 2.2567000000000004 7.68688 L 3.2037100000000005 7.485390000000001 L 3.6671400000000007 5.99436 L 3.6671400000000007 -7.02196 L 2.8958200000000005 -7.50554 L 1.8940200000000005 -7.6868799999999995 z" stroke-linecap="round" />
</g>
</svg>