<?xml version="1.0" encoding="UTF-8" standalone="no" ?>
<!DOCTYPE svg PUBLIC "-//W3C//DTD SVG 1.1//EN" "http://www.w3.org/Graphics/SVG/1.1/DTD/svg11.dtd">
<svg xmlns="http://www.w3.org/2000/svg" xmlns:xlink="http://www.w3.org/1999/xlink" version="1.1" width="24" height="24" viewBox="0 0 24 24" xml:space="preserve">
<desc>Created with Fabric.js 4.6.0</desc>
<defs>
</defs>
<g transform="matrix(1 0 0 1 7 12)" id="6R93D3U5b__ddkq5mD1HS"  >
<path style="stroke: none; stroke-width: 1; stroke-dasharray: none; stroke-linecap: butt; stroke-dashoffset: 0; stroke-linejoin: miter; stroke-miterlimit: 4; fill: rgb(0,0,0); fill-rule: nonzero; opacity: 1;" vector-effect="non-scaling-stroke"  transform=" translate(-7, -12)" d="M 11.46 3 C 10.46 3 10.46 3.13 4.700000000000001 7 L 1 7 C 0.44771525016920666 7 0 7.447715250169207 0 8 L 0 16 C 0 16.552284749830793 0.44771525016920666 17 1 17 L 4.7 17 L 10.06 20.57 C 10.838599847405108 21.08433898758914 11.836532109459483 21.130335727075973 12.659144091971644 20.689799868420984 C 13.481756074483805 20.249264009765994 13.996572999609597 19.393140167499933 14 18.46 L 14 5.54 C 14 4.137196735429785 12.862803264570214 3 11.46 3 Z M 2 9 L 4 9 L 4 15 L 2 15 Z M 12 18.46 C 11.991871160974227 18.653335150594767 11.88274134381412 18.82817472977599 11.712628880069207 18.920404378794316 C 11.542516416324295 19.01263402781264 11.336451901274877 19.00868294199803 11.17 18.91 L 6 15.46 L 6 8.54 L 11.17 5.089999999999999 C 11.336451901274877 4.991317058001971 11.542516416324295 4.987365972187357 11.712628880069207 5.079595621205683 C 11.88274134381412 5.171825270224009 11.991871160974227 5.346664849405234 12 5.539999999999999 Z" stroke-linecap="round" />
</g>
<g transform="matrix(1 0 0 1 20 12)" id="6gUaspAXzvljI9FypnouN"  >
<path style="stroke: none; stroke-width: 1; stroke-dasharray: none; stroke-linecap: butt; stroke-dashoffset: 0; stroke-linejoin: miter; stroke-miterlimit: 4; fill: rgb(0,0,0); fill-rule: nonzero; opacity: 1;" vector-effect="non-scaling-stroke"  transform=" translate(-20, -12)" d="M 21.41 12 L 23.71 9.71 C 23.9636585688348 9.456341431165205 24.06272351676809 9.086626012228985 23.969878036686953 8.74012196331305 C 23.877032556605812 8.393617914397113 23.606382085602885 8.122967443394188 23.25987803668695 8.030121963313048 C 22.913373987771017 7.93727648323191 22.543658568834797 8.036341431165205 22.29 8.290000000000001 L 20 10.59 L 17.71 8.29 C 17.317877827620137 7.897877827620135 16.682122172379863 7.897877827620135 16.29 8.29 C 15.897877827620135 8.682122172379861 15.897877827620135 9.317877827620135 16.29 9.709999999999999 L 18.59 12 L 16.29 14.29 C 15.897877827620135 14.682122172379863 15.897877827620137 15.317877827620137 16.29 15.71 C 16.682122172379863 16.102122172379865 17.317877827620137 16.102122172379865 17.71 15.709999999999999 L 20 13.41 L 22.29 15.71 C 22.543658568834797 15.963658568834797 22.913373987771017 16.06272351676809 23.25987803668695 15.969878036686953 C 23.60638208560289 15.877032556605814 23.877032556605812 15.606382085602888 23.96987803668695 15.259878036686953 C 24.06272351676809 14.913373987771017 23.963658568834795 14.543658568834797 23.71 14.290000000000001 Z" stroke-linecap="round" />
</g>
<g transform="matrix(1 0 0 1 3.03 11.99)" id="9W17KDjW8KZCv9HrHgoTy"  >
<path style="stroke: rgb(0,0,0); stroke-width: 1; stroke-dasharray: none; stroke-linecap: butt; stroke-dashoffset: 0; stroke-linejoin: miter; stroke-miterlimit: 4; fill: rgb(0,0,0); fill-rule: nonzero; opacity: 1;" vector-effect="non-scaling-stroke"  transform=" translate(0, 0)" d="M -1.5817 -3.59661 L -1.5817 3.6973700000000003 L 1.5817099999999997 3.5563300000000004 L 1.5817099999999997 -3.6973499999999997 z" stroke-linecap="round" />
</g>
<g transform="matrix(1 0 0 1 9.2 11.95)" id="pwEIjKi5e2WQeBFCI7dV8"  >
<path style="stroke: rgb(0,0,0); stroke-width: 1; stroke-dasharray: none; stroke-linecap: butt; stroke-dashoffset: 0; stroke-linejoin: miter; stroke-miterlimit: 4; fill: rgb(0,0,0); fill-rule: nonzero; opacity: 1;" vector-effect="non-scaling-stroke"  transform=" translate(0, 0)" d="M -3.58654 -4.01975 L -3.58654 4.08019 L 2.05521 7.70703 L 3.0022200000000003 7.46524 L 3.5865400000000003 6.45778 L 3.48579 -6.92122 L 2.7950600000000003 -7.4451 L 1.7731100000000004 -7.70704 z" stroke-linecap="round" />
</g>
</svg>