<?xml version="1.0" encoding="UTF-8" standalone="no" ?>
<!DOCTYPE svg PUBLIC "-//W3C//DTD SVG 1.1//EN" "http://www.w3.org/Graphics/SVG/1.1/DTD/svg11.dtd">
<svg xmlns="http://www.w3.org/2000/svg" xmlns:xlink="http://www.w3.org/1999/xlink" version="1.1" width="100" height="100" viewBox="0 0 100 100" xml:space="preserve">
<desc>Created with Fabric.js 4.6.0</desc>
<defs>
</defs>
<g transform="matrix(1 0 0 1 250 250)" id="G9GLSN2ZiMYKttQjeUKA-"  >
<path style="stroke: none; stroke-width: 1; stroke-dasharray: none; stroke-linecap: butt; stroke-dashoffset: 0; stroke-linejoin: miter; stroke-miterlimit: 4; fill: rgb(255,255,255); fill-rule: nonzero; opacity: 1;" vector-effect="non-scaling-stroke"  transform=" translate(-50, -50)" d="M 79.029 47.669 L 56.63 25.286 C 55.422000000000004 24.079 53.756 23.333000000000002 51.916000000000004 23.333000000000002 C 49.013000000000005 23.333000000000002 46.666000000000004 25.677000000000003 46.666000000000004 28.581000000000003 L 46.666000000000004 41.976 L 29.963 25.286 C 28.756 24.079 27.089000000000002 23.333000000000002 25.25 23.333000000000002 C 22.346 23.333000000000002 19.999 25.677000000000003 19.999 28.581000000000003 L 19.999 71.423 C 19.999 74.319 22.349999999999998 76.667 25.25 76.667 L 25.292 76.667 C 27.131 76.667 28.798000000000002 75.925 30.006 74.714 L 46.666 58.067 L 46.666 71.423 C 46.666 74.319 49.016 76.667 51.916 76.667 L 51.958999999999996 76.667 C 53.797999999999995 76.667 55.464999999999996 75.925 56.672 74.714 L 79.029 52.376 C 80.324 51.084 80.324 48.962 79.029 47.669 z" stroke-linecap="round" />
</g>
<g transform="matrix(1 0 0 1 50 50)" id="hgJNpbME0Xk9mRwV8Bvz3"  >
<path style="stroke: none; stroke-width: 1; stroke-dasharray: none; stroke-linecap: butt; stroke-dashoffset: 0; stroke-linejoin: miter; stroke-miterlimit: 4; fill: rgb(255,255,255); fill-rule: nonzero; opacity: 1;" vector-effect="non-scaling-stroke"  transform=" translate(-50, -50)" d="M 33.333 71.423 C 33.333 74.319 35.684 76.667 38.583999999999996 76.667 L 38.626 76.667 C 40.466 76.667 42.132 75.925 43.339999999999996 74.714 L 65.696 52.376 C 66.992 51.083999999999996 66.992 48.961999999999996 65.696 47.669 L 43.297 25.286 C 42.089 24.079 40.422 23.333000000000002 38.583 23.333000000000002 C 35.68 23.333000000000002 33.332 25.677000000000003 33.332 28.581000000000003 L 33.332 71.423 z" stroke-linecap="round" />
</g>
</svg>