<?xml version="1.0" encoding="UTF-8" standalone="no" ?>
<!DOCTYPE svg PUBLIC "-//W3C//DTD SVG 1.1//EN" "http://www.w3.org/Graphics/SVG/1.1/DTD/svg11.dtd">
<svg xmlns="http://www.w3.org/2000/svg" xmlns:xlink="http://www.w3.org/1999/xlink" version="1.1" width="100" height="100" viewBox="0 0 100 100" xml:space="preserve">
<desc>Created with Fabric.js 4.6.0</desc>
<defs>
</defs>
<g transform="matrix(1 0 0 1 250 250)" id="G9GLSN2ZiMYKttQjeUKA-"  >
<path style="stroke: none; stroke-width: 1; stroke-dasharray: none; stroke-linecap: butt; stroke-dashoffset: 0; stroke-linejoin: miter; stroke-miterlimit: 4; fill: rgb(255,255,255); fill-rule: nonzero; opacity: 1;" vector-effect="non-scaling-stroke"  transform=" translate(-50, -50)" d="M 79.029 47.669 L 56.63 25.286 C 55.422000000000004 24.079 53.756 23.333000000000002 51.916000000000004 23.333000000000002 C 49.013000000000005 23.333000000000002 46.666000000000004 25.677000000000003 46.666000000000004 28.581000000000003 L 46.666000000000004 41.976 L 29.963 25.286 C 28.756 24.079 27.089000000000002 23.333000000000002 25.25 23.333000000000002 C 22.346 23.333000000000002 19.999 25.677000000000003 19.999 28.581000000000003 L 19.999 71.423 C 19.999 74.319 22.349999999999998 76.667 25.25 76.667 L 25.292 76.667 C 27.131 76.667 28.798000000000002 75.925 30.006 74.714 L 46.666 58.067 L 46.666 71.423 C 46.666 74.319 49.016 76.667 51.916 76.667 L 51.958999999999996 76.667 C 53.797999999999995 76.667 55.464999999999996 75.925 56.672 74.714 L 79.029 52.376 C 80.324 51.084 80.324 48.962 79.029 47.669 z" stroke-linecap="round" />
</g>
<g transform="matrix(-1 0 0 -1 50 50)" id="q4MLDO73q6TvnmF1-pwBO"  >
<path style="stroke: none; stroke-width: 1; stroke-dasharray: none; stroke-linecap: butt; stroke-dashoffset: 0; stroke-linejoin: miter; stroke-miterlimit: 4; fill: rgb(255,255,255); fill-rule: nonzero; opacity: 1;" vector-effect="non-scaling-stroke"  transform=" translate(-50, -50)" d="M 79.029 47.669 L 56.629999999999995 25.285999999999998 C 55.422 24.078999999999997 53.75599999999999 23.333 51.916 23.333 C 49.013 23.333 46.666 25.677 46.666 28.581 L 46.666 41.976 L 29.962999999999997 25.285999999999998 C 28.755999999999997 24.078999999999997 27.089 23.333 25.249999999999996 23.333 C 22.345999999999997 23.333 19.998999999999995 25.677 19.998999999999995 28.581 L 19.998999999999995 71.423 C 19.998999999999995 74.319 22.349999999999994 76.667 25.249999999999996 76.667 L 25.291999999999998 76.667 C 27.130999999999997 76.667 28.798 75.925 30.006 74.714 L 46.666 58.067 L 46.666 71.423 C 46.666 74.319 49.016 76.667 51.916 76.667 L 51.958999999999996 76.667 C 53.797999999999995 76.667 55.464999999999996 75.925 56.672 74.714 L 79.029 52.376 C 80.324 51.083999999999996 80.324 48.961999999999996 79.029 47.669 z" stroke-linecap="round" />
</g>
</svg>